<svg xmlns="http://www.w3.org/2000/svg" width="16" height="13" viewBox="0 0 16 13">
  <metadata><?xpacket begin="﻿" id="W5M0MpCehiHzreSzNTczkc9d"?>
<x:xmpmeta xmlns:x="adobe:ns:meta/" x:xmptk="Adobe XMP Core 5.6-c138 79.159824, 2016/09/14-01:09:01        ">
   <rdf:RDF xmlns:rdf="http://www.w3.org/1999/02/22-rdf-syntax-ns#">
      <rdf:Description rdf:about=""/>
   </rdf:RDF>
</x:xmpmeta>
                                                                                                    
                                                                                                    
                                                                                                    
                                                                                                    
                                                                                                    
                                                                                                    
                                                                                                    
                                                                                                    
                                                                                                    
                                                                                                    
                                                                                                    
                                                                                                    
                                                                                                    
                                                                                                    
                                                                                                    
                                                                                                    
                                                                                                    
                                                                                                    
                                                                                                    
                                                                                                    
                           
<?xpacket end="w"?></metadata>
<defs>
    <style>
      .cls-1 {
        fill: #55acee;
        fill-rule: evenodd;
      }
    </style>
  </defs>
  <path id="Shape" class="cls-1" d="M206,1291.54a6.3,6.3,0,0,1-1.885.51,3.249,3.249,0,0,0,1.443-1.81,6.791,6.791,0,0,1-2.084.8,3.285,3.285,0,0,0-5.593,2.99,9.314,9.314,0,0,1-6.764-3.43,3.285,3.285,0,0,0,1.015,4.38,3.256,3.256,0,0,1-1.486-.41v0.04a3.285,3.285,0,0,0,2.632,3.22,3.088,3.088,0,0,1-.864.12,3.134,3.134,0,0,1-.617-0.06,3.294,3.294,0,0,0,3.065,2.28,6.58,6.58,0,0,1-4.075,1.4,6.741,6.741,0,0,1-.783-0.04,9.339,9.339,0,0,0,14.368-7.87c0-.14,0-0.28-0.01-0.42A6.786,6.786,0,0,0,206,1291.54Z" transform="translate(-190 -1290)"/>
</svg>
